Coordinates
version=1
nRows=10
nColumns=63
inDegrees=yes

Units are S.I. units (second, meters, Newtons, ...)
If the header above contains a line with 'inDegrees', this indicates whether rotational values are in degrees (yes) or radians (no).

endheader
time	pelvis_tilt	pelvis_list	pelvis_rotation	pelvis_tx	pelvis_ty	pelvis_tz	hip_flexion_r	hip_adduction_r	hip_rotation_r	knee_angle_r	knee_angle_r_beta	ankle_angle_r	subtalar_angle_r	mtp_angle_r	hip_flexion_l	hip_adduction_l	hip_rotation_l	knee_angle_l	knee_angle_l_beta	ankle_angle_l	subtalar_angle_l	mtp_angle_l	L5_S1_Flex_Ext	L5_S1_Lat_Bending	L5_S1_axial_rotation	L4_L5_Flex_Ext	L4_L5_Lat_Bending	L4_L5_axial_rotation	L3_L4_Flex_Ext	L3_L4_Lat_Bending	L3_L4_axial_rotation	L2_L3_Flex_Ext	L2_L3_Lat_Bending	L2_L3_axial_rotation	L1_L2_Flex_Ext	L1_L2_Lat_Bending	L1_L2_axial_rotation	L1_T12_Flex_Ext	L1_T12_Lat_Bending	L1_T12_axial_rotation	Abs_r3	Abs_r2	Abs_r1	Abs_t1	Abs_t2	neck_flexion	neck_bending	neck_rotation	arm_flex_r	arm_add_r	arm_rot_r	elbow_flex_r	pro_sup_r	wrist_flex_r	wrist_dev_r	arm_flex_l	arm_add_l	arm_rot_l	elbow_flex_l	pro_sup_l	wrist_flex_l	wrist_dev_l
      6.06122449	      1.52504740	     -5.32448497	     87.10173783	      0.14639899	      1.11847146	      0.47178438	      7.74954842	     -0.61317264	     -5.70581843	      8.86086144	      0.15465121	     34.92049239	     17.61850477	      0.00000000	      8.52063824	      0.86839741	     18.34883063	      7.15713507	      0.12491557	     31.57648306	    -12.42477906	      0.00000000	     -0.25472908	      0.94623629	      0.26508760	     -0.47305737	      1.25849426	      0.28165558	     -0.41849440	      2.30067891	      0.28165558	     -0.29112986	      2.30067891	      0.23195165	     -0.23654142	      1.92956504	      0.21538368	     -0.14555220	      1.46572001	      0.19881570	     -1.81950434	     10.70401415	      1.47433772	      0.00000000	      0.00000000	      4.14485436	     -9.01829360	    -12.08373368	     25.07240582	    -33.83259208	     26.31790351	     28.67226101	     88.45810138	    -24.72247347	    -10.94944685	     11.90726785	     -4.22466883	    140.74643909	      0.66341654	      1.38612137	     -8.72308034	    -22.58932871
      6.08163265	      1.47604193	     -5.21341418	     87.11232842	      0.14627240	      1.11860962	      0.47170392	      7.75265798	     -0.69132542	     -5.89708234	      9.05630642	      0.15806237	     34.93174760	     17.49545338	      0.00000000	      8.35412948	      0.95360873	     18.11326719	      7.21275795	      0.12588637	     31.49402986	    -12.51173895	      0.00000000	     -0.25067486	      0.94940519	      0.28300306	     -0.46552828	      1.26270890	      0.30069075	     -0.41183372	      2.30838378	      0.30069075	     -0.28649629	      2.30838378	      0.24762768	     -0.23277667	      1.93602706	      0.22993999	     -0.14323561	      1.47062864	      0.21225230	     -1.79054543	     10.73986139	      1.57397813	      0.00000000	      0.00000000	      4.54609877	     -9.39197513	    -11.39701462	     25.10874603	    -33.90778850	     25.64249128	     29.39657500	     88.10082858	    -24.40334983	    -10.26460313	     11.98672991	     -4.18199438	    140.97085661	      0.76778780	      1.48605012	     -8.59265762	    -22.33243356
      6.10204082	      1.34404593	     -5.05775109	     87.03005978	      0.14633696	      1.11867263	      0.47194198	      7.84087203	     -0.86023635	     -5.88552521	      9.47386380	      0.16535012	     35.18444018	     17.46818589	      0.00000000	      8.22674910	      1.10162191	     17.77663601	      7.41687268	      0.12944885	     31.68901725	    -12.37475246	      0.00000000	     -0.25788383	      0.94293351	      0.31185876	     -0.47891606	      1.25410157	      0.33134993	     -0.42367734	      2.29264854	      0.33134993	     -0.29473543	      2.29264854	      0.27287641	     -0.23947092	      1.92283002	      0.25338524	     -0.14735482	      1.46060401	      0.23389407	     -1.84203840	     10.66665247	      1.73446484	      0.00000000	      0.00000000	      5.36012255	     -9.20307713	     -9.77627766	     24.51964102	    -33.88729161	     22.74841728	     31.28950890	     87.80972191	    -22.92313013	     -8.28875457	     12.10581410	     -4.16717921	    141.43918353	      0.83238582	      1.51696607	     -8.45154768	    -21.80013535
      6.12244898	      1.23652605	     -5.08521129	     87.13088061	      0.14723776	      1.11854491	      0.47166317	      7.93180549	     -0.92945629	     -6.02476165	      9.59667162	      0.16749352	     35.32294941	     17.49827993	      0.00000000	      8.28233648	      1.14036894	     16.79822322	      7.59698595	      0.13259242	     32.17464385	    -11.51411856	      0.00000000	     -0.21512193	      0.90952150	      0.37941212	     -0.39950294	      1.20966360	      0.40312538	     -0.35342382	      2.21141058	      0.40312538	     -0.24586285	      2.21141058	      0.33198561	     -0.19976222	      1.85469625	      0.30827235	     -0.12292067	      1.40884881	      0.28455909	     -1.53659443	     10.28868914	      2.11017640	      0.00000000	      0.00000000	      5.67655108	     -8.89211384	    -10.10071402	     22.49201709	    -33.20068466	     15.82980714	     33.51972422	     88.41337058	    -19.37322083	     -7.34130799	     12.25883866	     -4.36150167	    142.26004648	      1.02190770	      1.55655538	     -8.59184280	    -21.29731157
      6.14285714	      1.05440413	     -5.00889287	     87.37476286	      0.14741528	      1.11857325	      0.47212967	      8.04047829	     -1.13658930	     -6.18156736	      9.92516461	      0.17322680	     35.49642578	     17.29648361	      0.00000000	      8.32599756	      1.36458183	     16.40382864	      7.86264769	      0.13722909	     32.43558843	    -11.62058135	      0.00000000	     -0.20790494	      0.87446817	      0.30923647	     -0.38610026	      1.16304266	      0.32856375	     -0.34156702	      2.12618190	      0.32856375	     -0.23761455	      2.12618190	      0.27058191	     -0.19306053	      1.78321549	      0.25125463	     -0.11879688	      1.35455119	      0.23192735	     -1.48504418	      9.89215881	      1.71988048	      0.00000000	      0.00000000	      6.43923018	     -8.96885871	     -9.69677013	     22.14119938	    -33.07815591	     14.89264176	     34.89379120	     87.97550028	    -19.00416686	     -6.71251422	     12.29390019	     -4.61756467	    142.02018860	      1.20511590	      1.54719405	     -8.82159626	    -20.71922767
      6.16326531	      1.04073359	     -5.11333896	     87.84536561	      0.14781845	      1.11845374	      0.47260588	      8.31649720	     -1.17470803	     -6.71860367	     10.30188904	      0.17980188	     35.64025901	     17.28579482	      0.00000000	      8.68239061	      1.39684868	     15.71918799	      8.35044249	      0.14574272	     32.93749755	    -11.27643877	      0.00000000	     -0.16965605	      0.84562311	      0.21254009	     -0.31506824	      1.12467874	      0.22582384	     -0.27872792	      2.05604804	      0.22582384	     -0.19389989	      2.05604804	      0.18597258	     -0.15754260	      1.72439465	      0.17268882	     -0.09694146	      1.30987020	      0.15940507	     -1.21183617	      9.56585777	      1.18208421	      0.00000000	      0.00000000	      6.87125797	     -8.41430607	     -9.31432536	     21.07328827	    -32.65899757	     12.15392457	     36.77130844	     88.10364993	    -17.50933460	     -5.58290403	     12.26864193	     -4.92748954	    141.51973620	      1.46082146	      1.64893066	     -9.49060588	    -20.31713006
      6.18367347	      0.89801162	     -5.16107399	     88.19989757	      0.14834453	      1.11859794	      0.47306379	      8.52145634	     -1.34523533	     -7.11819663	     10.68805353	      0.18654172	     35.78397382	     17.28805913	      0.00000000	      8.90255668	      1.52452864	     14.51818193	      8.68942260	      0.15165903	     33.28708763	    -10.66662198	      0.00000000	     -0.15356019	      0.79689283	      0.12458530	     -0.28517664	      1.05986747	      0.13237188	     -0.25228404	      1.93756524	      0.13237188	     -0.17550395	      1.93756524	      0.10901214	     -0.14259600	      1.62502387	      0.10122556	     -0.08774430	      1.23438700	      0.09343898	     -1.09686511	      9.01461112	      0.69290607	      0.00000000	      0.00000000	      7.40029241	     -7.94044050	     -9.18794650	     20.12623924	    -32.45327607	     11.16408497	     38.39222438	     88.29948528	    -17.15561414	     -5.61519212	     12.22319952	     -5.31625008	    141.09286220	      1.61496013	      1.68648364	    -10.13085561	    -20.16588838
      6.20408163	      0.82752686	     -5.13186372	     88.44500795	      0.14902429	      1.11907634	      0.47336037	      8.56088491	     -1.40112973	     -7.26830530	     10.98434396	      0.19171297	     35.67416023	     17.12025454	      0.00000000	      8.91421284	      1.58286063	     13.71984364	      8.89987722	      0.15533216	     33.10407807	    -10.87631496	      0.00000000	     -0.15939531	      0.75179326	      0.03791329	     -0.29601303	      0.99988503	      0.04028287	     -0.26187055	      1.82791012	      0.04028287	     -0.18217290	      1.82791012	      0.03317413	     -0.14801448	      1.53305681	      0.03080455	     -0.09107848	      1.16452775	      0.02843497	     -1.13854475	      8.50443567	      0.21086235	      0.00000000	      0.00000000	      7.93188011	     -7.51209832	     -9.11188846	     19.34533490	    -32.44959862	     11.53660423	     40.03002921	     88.44602466	    -17.30410192	     -6.24847703	     12.09824836	     -5.68356423	    140.92220565	      1.51704197	      1.63008430	    -10.39012031	    -20.02441294
      6.22448980	      0.71560547	     -5.31536287	     88.70142048	      0.15016146	      1.11920640	      0.47418856	      8.92879700	     -1.50424845	     -7.39290469	     11.51770576	      0.20102189	     35.57483061	     17.04978187	      0.00000000	      9.51335278	      1.39407439	      9.14360009	      9.83785659	      0.17170299	     34.13626237	     -5.95620118	      0.00000000	     -0.14934442	      0.69323440	     -0.01713360	     -0.27734753	      0.92200175	     -0.01820445	     -0.24535795	      1.68553012	     -0.01820445	     -0.17068574	      1.68553012	     -0.01499190	     -0.13868123	      1.41364359	     -0.01392105	     -0.08533540	      1.07382008	     -0.01285020	     -1.06675228	      7.84200616	     -0.09529193	      0.00000000	      0.00000000	      8.69889126	     -6.39046263	     -8.49299006	     18.19176957	    -32.36574893	     11.83796625	     42.35554840	     88.65727234	    -18.87986878	     -6.91376124	     12.13264168	     -6.11874175	    141.04513199	      1.55342540	      1.70193339	    -11.32888412	    -19.98800977
      6.24489796	      0.61477522	     -5.35575195	     88.85279865	      0.15109733	      1.11964014	      0.47452124	      8.99941341	     -1.57597716	     -7.26629052	     11.82996339	      0.20647181	     35.33007456	     16.92704338	      0.00000000	      9.62404781	      1.44944578	      8.33041146	     10.31775055	      0.18007872	     33.56931649	     -6.20723552	      0.00000000	     -0.16136939	      0.63658671	     -0.02807080	     -0.29967910	      0.84666033	     -0.02982522	     -0.26511378	      1.54779694	     -0.02982522	     -0.18442908	      1.54779694	     -0.02456195	     -0.14984762	      1.29812763	     -0.02280752	     -0.09220647	      0.98607282	     -0.02105310	     -1.15264544	      7.20119622	     -0.15612135	      0.00000000	      0.00000000	      9.30809213	     -5.55738490	     -8.23152262	     16.83695820	    -32.36665561	     11.90689654	     45.18971805	     88.85021014	    -20.07945042	     -7.04335394	     12.23082268	     -6.46090851	    140.99377937	      1.54640832	      1.74362847	    -11.43053938	    -19.96896473
